# xmcd CD database file
#
# Track frame offsets:
#	150
#	20380
#	40997
#	64967
#	76790
#	104802
#	130057
#	138447
#	159175
#	180015
#
# Disc length: 2794 seconds
#
# Revision: 0
# Processed by: cddbd v1.5PL3 Copyright (c) Steve Scherf et al.
# Submitted via: CDex 1.40Release
#
DISCID=770ae80a
DTITLE=Kelly Simonz's BLINDFAITH - Sign Of The Times
DYEAR=1998
DGENRE=Metal
TTITLE0=Eternal Flame
TTITLE1=Cry For Love
TTITLE2=I'll Never Say Goodbye
TTITLE3=Solitude
TTITLE4=Blind Faith
TTITLE5=Sign Of The Times
TTITLE6=Suite In B Minor BWV1067
TTITLE7=Cry For You
TTITLE8=Serpent In A Paradise
TTITLE9=Stay In My Heart
EXTD=YEAR: 1998 ID3G: 9
EXTT0=
EXTT1=
EXTT2=
EXTT3=
EXTT4=
EXTT5=
EXTT6=
EXTT7=
EXTT8=
EXTT9=
PLAYORDER=
